<?xml version="1.0" encoding="UTF-8" standalone="no"?> <svg id="Layer_1" enable-background="new 0 0 511.853 511.853" height="512" viewBox="0 0 511.853 511.853" width="512" xmlns="http://www.w3.org/2000/svg"><g><path d="m392.676 147.152-41.77 16.256-33.625-119.839-61.353 96.797-61.353-96.797-33.626 119.839-41.771-16.257-15.86 14.45 30.998 107.063v22.873h243.223v-22.873l30.999-107.064z" fill="#ffd321"/><path d="m392.676 147.152-41.77 16.256-33.625-119.839-61.353 96.797v151.171h121.611v-22.873l30.999-107.064z" fill="#ffaf00"/><path d="m134.316 268.664h243.223v77.089h-243.223z" fill="#ffaf00"/><path d="m255.928 268.664h121.611v77.089h-121.611z" fill="#ff8e00"/><g><path d="m240.928 205.6h30v30.002h-30z" fill="#fff16b" transform="matrix(.707 -.707 .707 .707 -81.029 245.581)"/></g><g><path d="m180.924 205.6h30v30.002h-30z" fill="#fff16b" transform="matrix(.707 -.707 .707 .707 -98.603 203.148)"/></g><g><path d="m300.932 205.6h30v30.002h-30z" fill="#fff16b" transform="matrix(.707 -.707 .707 .707 -63.454 288.01)"/></g><g fill="#ffaf00"><path d="m311.932 23.728c-19.657 0-35.65 15.993-35.65 35.65s15.993 35.65 35.65 35.65 35.649-15.993 35.649-35.65-15.992-35.65-35.649-35.65z"/><path d="m404.363 114.569c-19.657 0-35.65 15.993-35.65 35.65s15.993 35.65 35.65 35.65 35.649-15.993 35.649-35.65-15.991-35.65-35.649-35.65z"/><circle cx="199.924" cy="59.378" r="35.65"/><ellipse cx="107.492" cy="150.219" rx="35.65" ry="35.65" transform="matrix(.383 -.924 .924 .383 -72.428 192.043)"/></g><path d="m511.853 366.6h-115.132l-38.008 50.678v70.847h153.14l-26.557-60.763z" fill="#ff3838"/><path d="m511.853 366.6h-115.132l-38.008 50.678v70.847h153.14l-26.557-60.763z" fill="#c30047"/><path d="m0 366.6 26.558 60.762-26.558 60.763h153.141v-70.847l-38.008-50.678z" fill="#ff3838"/><path d="m92.635 315.753h326.586v121.524h-326.586z" fill="#ff6326"/><g><path d="m300.932 205.6h30v30.002h-30z" fill="#ffd321" transform="matrix(.707 -.707 .707 .707 -63.454 288.01)"/></g><path d="m311.932 23.728c-19.657 0-35.65 15.993-35.65 35.65s15.993 35.65 35.65 35.65 35.649-15.993 35.649-35.65-15.992-35.65-35.649-35.65z" fill="#ff8e00"/><path d="m404.363 114.569c-19.657 0-35.65 15.993-35.65 35.65s15.993 35.65 35.65 35.65 35.649-15.993 35.649-35.65-15.991-35.65-35.649-35.65z" fill="#ff8e00"/><path d="m277.142 220.602-21.214-21.214v42.426l.001.001z" fill="#ffd321"/><path d="m255.928 315.753h163.293v121.524h-163.293z" fill="#ff3838"/></g></svg>